<?xml version="1.0" encoding="utf-8"?>
<!-- Generator: Adobe Illustrator 16.0.3, SVG Export Plug-In . SVG Version: 6.00 Build 0)  -->
<!DOCTYPE svg PUBLIC "-//W3C//DTD SVG 1.1//EN" "http://www.w3.org/Graphics/SVG/1.1/DTD/svg11.dtd">
<svg version="1.1" id="Ebene_1" xmlns="http://www.w3.org/2000/svg" xmlns:xlink="http://www.w3.org/1999/xlink" x="0px" y="0px"
	 width="300px" height="300px" viewBox="0 0 300 300" enable-background="new 0 0 300 300" xml:space="preserve">
<rect fill="#006633" width="300" height="300"/>
<g>
	<path fill="#FFFFFF" d="M35.801,105.95v-7.734c0.885,0.781,1.946,1.484,3.184,2.109c1.236,0.625,2.539,1.152,3.906,1.582
		s2.74,0.762,4.121,0.996c1.38,0.234,2.656,0.352,3.828,0.352c4.036,0,7.051-0.748,9.043-2.246c1.992-1.497,2.988-3.652,2.988-6.465
		c0-1.51-0.332-2.825-0.996-3.945c-0.664-1.119-1.582-2.142-2.754-3.066c-1.172-0.924-2.559-1.81-4.16-2.656
		c-1.602-0.846-3.327-1.738-5.176-2.676c-1.953-0.989-3.776-1.992-5.469-3.008c-1.693-1.016-3.164-2.135-4.414-3.359
		c-1.25-1.224-2.233-2.61-2.949-4.16c-0.717-1.549-1.074-3.365-1.074-5.449c0-2.552,0.56-4.771,1.68-6.66
		c1.119-1.888,2.591-3.443,4.414-4.668c1.822-1.224,3.899-2.135,6.23-2.734c2.33-0.599,4.707-0.898,7.129-0.898
		c5.521,0,9.544,0.664,12.07,1.992v7.383C64.095,58.347,59.85,57.2,54.668,57.2c-1.433,0-2.865,0.15-4.297,0.449
		c-1.433,0.3-2.709,0.788-3.828,1.465c-1.12,0.678-2.031,1.55-2.734,2.617c-0.703,1.068-1.055,2.37-1.055,3.906
		c0,1.433,0.267,2.67,0.801,3.711c0.533,1.042,1.321,1.992,2.363,2.852c1.041,0.859,2.311,1.693,3.809,2.5
		c1.497,0.808,3.223,1.693,5.176,2.656c2.005,0.99,3.906,2.031,5.703,3.125s3.372,2.305,4.727,3.633
		c1.354,1.328,2.428,2.8,3.223,4.414c0.794,1.615,1.191,3.464,1.191,5.547c0,2.761-0.541,5.098-1.621,7.012
		c-1.081,1.914-2.539,3.471-4.375,4.668c-1.836,1.198-3.952,2.064-6.348,2.598c-2.396,0.533-4.922,0.801-7.578,0.801
		c-0.886,0-1.979-0.072-3.281-0.215c-1.303-0.144-2.631-0.352-3.984-0.625c-1.354-0.273-2.637-0.611-3.848-1.016
		C37.5,106.895,36.529,106.445,35.801,105.95z"/>
	<path fill="#FFFFFF" d="M107.324,106.38c-3.073,1.849-6.719,2.773-10.938,2.773c-5.703,0-10.307-1.855-13.809-5.566
		c-3.503-3.711-5.254-8.521-5.254-14.434c0-6.588,1.888-11.881,5.664-15.879c3.775-3.997,8.814-5.996,15.117-5.996
		c3.516,0,6.614,0.651,9.297,1.953v6.563c-2.969-2.083-6.146-3.125-9.531-3.125c-4.089,0-7.441,1.465-10.059,4.395
		s-3.926,6.777-3.926,11.543c0,4.688,1.23,8.386,3.691,11.094c2.461,2.709,5.762,4.063,9.902,4.063c3.489,0,6.771-1.158,9.844-3.477
		V106.38z"/>
	<path fill="#FFFFFF" d="M150.215,108.216h-6.406V85.169c0-8.333-3.1-12.5-9.297-12.5c-3.125,0-5.756,1.205-7.891,3.613
		c-2.136,2.409-3.203,5.502-3.203,9.277v22.656h-6.406V48.997h6.406v25.859h0.156c3.072-5.052,7.447-7.578,13.125-7.578
		c9.01,0,13.516,5.43,13.516,16.289V108.216z"/>
	<path fill="#FFFFFF" d="M179.004,109.153c-5.912,0-10.632-1.868-14.16-5.605c-3.529-3.736-5.293-8.691-5.293-14.863
		c0-6.719,1.836-11.966,5.508-15.742c3.672-3.775,8.633-5.664,14.883-5.664c5.963,0,10.618,1.836,13.965,5.508
		c3.346,3.672,5.02,8.764,5.02,15.273c0,6.381-1.804,11.491-5.41,15.332C189.908,107.233,185.071,109.153,179.004,109.153z
		 M179.473,72.669c-4.115,0-7.37,1.4-9.766,4.199c-2.396,2.8-3.594,6.66-3.594,11.582c0,4.74,1.211,8.477,3.633,11.211
		s5.664,4.102,9.727,4.102c4.141,0,7.324-1.341,9.551-4.023c2.227-2.682,3.34-6.497,3.34-11.445c0-5-1.113-8.854-3.34-11.563
		C186.797,74.023,183.613,72.669,179.473,72.669z"/>
	<path fill="#FFFFFF" d="M225.879,109.153c-5.912,0-10.632-1.868-14.16-5.605c-3.529-3.736-5.293-8.691-5.293-14.863
		c0-6.719,1.836-11.966,5.508-15.742c3.672-3.775,8.633-5.664,14.883-5.664c5.963,0,10.618,1.836,13.965,5.508
		c3.346,3.672,5.02,8.764,5.02,15.273c0,6.381-1.804,11.491-5.41,15.332C236.783,107.233,231.946,109.153,225.879,109.153z
		 M226.348,72.669c-4.115,0-7.37,1.4-9.766,4.199c-2.396,2.8-3.594,6.66-3.594,11.582c0,4.74,1.211,8.477,3.633,11.211
		s5.664,4.102,9.727,4.102c4.141,0,7.324-1.341,9.551-4.023c2.227-2.682,3.34-6.497,3.34-11.445c0-5-1.113-8.854-3.34-11.563
		C233.672,74.023,230.488,72.669,226.348,72.669z"/>
	<path fill="#FFFFFF" d="M262.441,108.216h-6.406V48.997h6.406V108.216z"/>
</g>
<g>
	<path fill="#FFFFFF" d="M117.59,262.609H99.646V157.58h17.944V262.609z"/>
	<path fill="#FFFFFF" d="M210.828,172.375h-30.176v90.234h-17.432v-90.234h-30.103V157.58h77.71V172.375z"/>
</g>
<g>
</g>
<g>
</g>
<g>
</g>
<g>
</g>
<g>
</g>
<g>
</g>
</svg>
